<?xml version="1.0" encoding="UTF-8" standalone="no"?>
<!-- Created with Inkscape (http://www.inkscape.org/) -->

<svg
   xmlns:dc="http://purl.org/dc/elements/1.1/"
   xmlns:cc="http://creativecommons.org/ns#"
   xmlns:rdf="http://www.w3.org/1999/02/22-rdf-syntax-ns#"
   xmlns:svg="http://www.w3.org/2000/svg"
   xmlns="http://www.w3.org/2000/svg"
   xmlns:xlink="http://www.w3.org/1999/xlink"
   version="1.1"
   width="150"
   height="150"
   id="svg4257">
  <defs
     id="defs4259">
    <linearGradient
       x1="122.3517"
       y1="169.37943"
       x2="217.56462"
       y2="169.37943"
       id="linearGradient4028"
       xlink:href="#linearGradient3890"
       gradientUnits="userSpaceOnUse" />
    <linearGradient
       id="linearGradient3890">
      <stop
         id="stop3892"
         style="stop-color:#afafaf;stop-opacity:1"
         offset="0" />
      <stop
         id="stop3894"
         style="stop-color:#ffffff;stop-opacity:1"
         offset="1" />
    </linearGradient>
  </defs>
  <metadata
     id="metadata4262">
    <rdf:RDF>
      <cc:Work
         rdf:about="">
        <dc:format>image/svg+xml</dc:format>
        <dc:type
           rdf:resource="http://purl.org/dc/dcmitype/StillImage" />
        <dc:title></dc:title>
      </cc:Work>
    </rdf:RDF>
  </metadata>
  <g
     transform="translate(0,-902.36218)"
     id="layer1">
    <path
       d="m 133.85052,977.18361 a 59.207662,59.4038 0 0 1 -118.41532,0 59.207662,59.4038 0 1 1 118.41532,0 z"
       id="path2985"
       style="fill:#000000;fill-opacity:0;fill-rule:nonzero;stroke:#afafaf;stroke-width:0.28084761;stroke-linecap:square;stroke-linejoin:round;stroke-miterlimit:4;stroke-opacity:1;stroke-dasharray:none;stroke-dashoffset:0" />
    <path
       d="m 131.48697,977.23049 a 56.847067,56.997786 0 0 1 -113.694129,0 56.847067,56.997786 0 1 1 113.694129,0 z"
       id="path2985-30"
       style="fill:none;stroke:#585858;stroke-width:4.43300009;stroke-linecap:square;stroke-linejoin:round;stroke-miterlimit:4;stroke-opacity:1;stroke-dasharray:none;stroke-dashoffset:0;display:inline" />
    <g
       transform="matrix(0.79127834,0,0,0.79437528,15.295051,917.57181)"
       id="layer5"
       style="display:inline">
      <path
         d="m 217.18279,169.37943 a 47.224632,52.780472 0 1 1 -94.44926,0 47.224632,52.780472 0 1 1 94.44926,0 z"
         transform="matrix(1.456566,0,0,1.2983959,-172.44428,-144.77671)"
         id="path2985-3"
         style="fill:#d5ffff;fill-opacity:0;fill-rule:nonzero;stroke:url(#linearGradient4028);stroke-width:0.76382726;stroke-linecap:square;stroke-linejoin:round;stroke-miterlimit:4;stroke-opacity:1;stroke-dasharray:none;stroke-dashoffset:0" />
    </g>
  </g>
</svg>
