<?xml version="1.0" encoding="UTF-8" standalone="no"?>
<!-- Created with Inkscape (http://www.inkscape.org/) -->

<svg
   xmlns:dc="http://purl.org/dc/elements/1.1/"
   xmlns:cc="http://creativecommons.org/ns#"
   xmlns:rdf="http://www.w3.org/1999/02/22-rdf-syntax-ns#"
   xmlns:svg="http://www.w3.org/2000/svg"
   xmlns="http://www.w3.org/2000/svg"
   version="1.1"
   width="10.6"
   height="54.599998"
   id="svg2">
  <defs
     id="defs4" />
  <metadata
     id="metadata7">
    <rdf:RDF>
      <cc:Work
         rdf:about="">
        <dc:format>image/svg+xml</dc:format>
        <dc:type
           rdf:resource="http://purl.org/dc/dcmitype/StillImage" />
        <dc:title></dc:title>
      </cc:Work>
    </rdf:RDF>
  </metadata>
  <g
     transform="matrix(1.2338448,-0.00496922,0.00497838,1.2315794,-5.2593972,-1241.6759)"
     id="layer1">
    <path
       d="m 5.0735053,1052.3624 -0.1578172,-24.4775 c 0.1010409,-0.012 0.2002241,-0.025 0.3017111,-0.044 2.3245498,-0.4428 3.8523062,-2.6928 3.4081952,-5.0243 -0.364739,-1.9147 -1.9458689,-3.2919 -3.7869617,-3.4774 l -0.1204097,-10.7799 -0.2544837,-0.3409 -0.3038076,0.3419 -0.1446664,10.7758 c -0.134774,0.013 -0.2712389,0.032 -0.4068824,0.058 -2.3245497,0.4428 -3.84855415,2.6954 -3.40444535,5.0269 0.3590293,1.8847 1.89563035,3.2455 3.69964425,3.4646 l -0.4369547,24.4703 c 0.4716253,0 1.2525533,0.01 1.6068782,0.01 z m -0.3684844,-26.8175 c -1.0777204,0.2053 -2.1196718,-0.5008 -2.3242918,-1.575 -0.2046184,-1.0742 0.5053768,-2.1108 1.5830988,-2.3161 1.0777233,-0.2053 2.1159227,0.4983 2.320542,1.5725 0.2046209,1.0742 -0.5016266,2.1133 -1.579349,2.3186 z"
       id="path3274"
       style="fill:#a40000;fill-opacity:1;fill-rule:evenodd;stroke:none;stroke-width:0.5;marker:none;visibility:visible;display:inline;overflow:visible" />
  </g>
</svg>
