<?xml version="1.0" encoding="UTF-8" standalone="no"?>
<!-- Created with Inkscape (http://www.inkscape.org/) -->

<svg
   xmlns:dc="http://purl.org/dc/elements/1.1/"
   xmlns:cc="http://creativecommons.org/ns#"
   xmlns:rdf="http://www.w3.org/1999/02/22-rdf-syntax-ns#"
   xmlns:svg="http://www.w3.org/2000/svg"
   xmlns="http://www.w3.org/2000/svg"
   xmlns:sodipodi="http://sodipodi.sourceforge.net/DTD/sodipodi-0.dtd"
   xmlns:inkscape="http://www.inkscape.org/namespaces/inkscape"
   version="1.1"
   width="12.4"
   height="48.5"
   id="svg2"
   inkscape:version="0.91 r"
   sodipodi:docname="hour.svg">
  <sodipodi:namedview
     pagecolor="#ffffff"
     bordercolor="#666666"
     borderopacity="1"
     objecttolerance="10"
     gridtolerance="10"
     guidetolerance="10"
     inkscape:pageopacity="0"
     inkscape:pageshadow="2"
     inkscape:window-width="1208"
     inkscape:window-height="905"
     id="namedview7"
     showgrid="false"
     inkscape:zoom="64.58"
     inkscape:cx="3.6056237"
     inkscape:cy="16.270094"
     inkscape:window-x="102"
     inkscape:window-y="23"
     inkscape:window-maximized="0"
     inkscape:current-layer="svg2"
     showguides="true"
     inkscape:guide-bbox="true">
    <sodipodi:guide
       position="-0.68462898,1.5680212"
       orientation="0,1"
       id="guide3345" />
    <sodipodi:guide
       position="-43.211207,53.232759"
       orientation="1,0"
       id="guide3347" />
  </sodipodi:namedview>
  <defs
     id="defs4" />
  <metadata
     id="metadata7">
    <rdf:RDF>
      <cc:Work
         rdf:about="">
        <dc:format>image/svg+xml</dc:format>
        <dc:type
           rdf:resource="http://purl.org/dc/dcmitype/StillImage" />
        <dc:title />
      </cc:Work>
    </rdf:RDF>
  </metadata>
  <g
     id="g4179"
     transform="matrix(0.99998749,0,0,1.001285,16.055911,-0.04598029)"
     style="fill:#1c2224;fill-opacity:1;stroke:#000000;stroke-width:0.2;stroke-miterlimit:4;stroke-dasharray:none">
    <path
       sodipodi:nodetypes="ccccccccccccccccccccccccccccccccccccccccccccccccsccccccccccccccccccccccccccccc"
       inkscape:connector-curvature="0"
       id="path4147"
       d="m -9.8906617,46.931979 0.0054,-46.62262331 -0.7473103,0.76477321 -0.576608,0.6474068 0.638439,0.8181084 -0.10887,0.9471167 -0.441307,1.4121801 -0.379476,0.8270763 -0.01344,-0.4845587 -0.182661,-0.350371 -0.324631,0.4171142 0.159651,0.3965042 -0.177752,0.679919 -1.277397,1.0275675 -0.0205,-0.6465475 -0.244811,-0.3501581 -0.262485,0.3220209 0.203481,0.3887621 -0.139141,0.6205987 -0.973479,0.7417492 -0.01541,-0.3862524 -0.314171,-0.2317301 -0.231731,0.3501582 0.1699,0.5253969 -0.288435,0.350158 -0.401735,0.7365169 -0.100434,0.8704288 0.301301,1.037819 0.468693,0.803473 0.836952,0.435215 1.205209,0 0.535649,-0.16739 0.468692,-0.200869 0.535649,0.100435 0.419836,0.44034 0.04886,0.697913 -0.133913,4.887794 -0.442956,0.236856 -0.350159,0.404353 -0.05147,0.386252 0.347543,0.440447 0.466182,0.226497 -0.337396,1.084272 -0.301302,0.736517 -0.535649,0.602605 -0.417113,0.502171 -0.414605,0.306428 0.0409,0.33478 c 0,0 0.89214,0.475794 1.39604,1.143592 0.484534,0.642132 0.386252,1.524826 0.386252,1.524826 l -0.08757,2.515553 c 0,0 -0.502171,0.200868 -0.636083,0.267824 -0.133912,0.06696 -0.669561,0.435214 -0.669561,0.435214 l -0.401736,0.401737 -0.401737,0.569127 -0.33478,0.602604 -0.23184,0.798347 0.06445,1.042946 0.03348,0.66956 0.16739,0.836951 0.736517,1.03782 0.669561,0.602604 0.659308,0.391379 0.620599,0.280692 -0.141654,1.035309 -0.133913,1.439556 -0.669561,1.53999 -0.569127,0.836951 -0.602603,0.703039 -0.468693,0.669561 -0.06696,0.937385 0.200868,0.636083 0.602605,0.803473 0.803473,0.50217 0.937385,0.424896 0.850846,0.588468 0.439883,0.84254 z"
       style="fill:#1c2224;fill-opacity:1;fill-rule:evenodd;stroke:#000000;stroke-width:0.2;stroke-linecap:butt;stroke-linejoin:miter;stroke-miterlimit:4;stroke-dasharray:none;stroke-opacity:1" />
    <path
       sodipodi:nodetypes="ccccccccccccccccccccccccccccccccccccccccccccccccsccccccccccccccccccccccccccccc"
       inkscape:connector-curvature="0"
       id="path4147-0"
       d="m -9.9599127,48.375191 0.2698753,-48.02656321 0.5531126,0.67791731 0.5861899,0.6474068 -0.6490472,0.8181084 0.1106789,0.9471167 0.4486387,1.4121796 0.3857814,0.827077 0.013663,-0.484559 0.1856961,-0.350371 0.330025,0.417114 -0.1623037,0.396504 0.1807045,0.679919 1.2986221,1.027568 0.020841,-0.646548 0.2488787,-0.350158 0.2668464,0.322021 -0.206862,0.388762 0.141453,0.620599 0.9896542,0.741749 0.015666,-0.386252 0.3193912,-0.23173 0.2355804,0.350158 -0.172723,0.525397 0.2932276,0.350158 0.4084112,0.736517 0.1021028,0.8704284 -0.3063084,1.037819 -0.4764808,0.803473 -0.8508577,0.435215 -1.2252346,0 -0.5445493,-0.16739 -0.4764798,-0.200869 -0.5445492,0.100435 -0.426813,0.44034 -0.049672,0.697913 0.1361381,4.887794 0.4503161,0.236856 0.3559772,0.404353 0.052325,0.386252 -0.3533177,0.440447 -0.473928,0.226497 0.3430021,1.084272 0.3063084,0.736517 0.5445493,0.602605 0.4240447,0.502171 0.421493,0.306428 -0.04158,0.33478 c 0,0 -0.9069627,0.475794 -1.4192354,1.143592 -0.4925849,0.642132 -0.3926699,1.524826 -0.3926699,1.524826 l 0.089025,2.515553 c 0,0 0.5105149,0.200868 0.646652,0.267824 0.1361371,0.06696 0.6806864,0.435214 0.6806864,0.435214 l 0.4084112,0.401737 0.4084122,0.569127 0.3403427,0.602604 0.2356922,0.798347 -0.065521,1.042946 -0.034036,0.66956 -0.1701713,0.836951 -0.7487549,1.03782 -0.6806864,0.602604 -0.670263,0.391379 -0.6309107,0.280692 0.1440077,1.035309 0.136137,1.439556 0.6806864,1.53999 0.5785835,0.836951 0.6126168,0.703039 0.4764808,0.669561 0.068073,0.937385 -0.2042056,0.636083 -0.6126179,0.803473 -0.8168234,0.50217 -0.9529604,0.234347 -0.9774134,0.779017 -0.3109855,0.609443 z"
       style="fill:#1c2224;fill-opacity:1;fill-rule:evenodd;stroke:#000000;stroke-width:0.2;stroke-linecap:butt;stroke-linejoin:miter;stroke-miterlimit:4;stroke-dasharray:none;stroke-opacity:1" />
  </g>
  <path
     style="fill:#000000;fill-rule:evenodd;stroke:#000000;stroke-width:0.29800841;stroke-linecap:butt;stroke-linejoin:miter;stroke-miterlimit:4;stroke-dasharray:none;stroke-opacity:1"
     d="M 6.2120889,0.35129135 6.1299899,47.719981 6.1081419,47.932568"
     id="path4183"
     inkscape:connector-curvature="0"
     sodipodi:nodetypes="ccc" />
  <path
     sodipodi:type="spiral"
     style="fill:none;fill-rule:evenodd;stroke:#000000;stroke-width:0.1;stroke-linecap:butt;stroke-linejoin:miter;stroke-miterlimit:4;stroke-dasharray:none;stroke-opacity:1"
     id="path4187"
     sodipodi:cx="-1.8392818"
     sodipodi:cy="7.7511497"
     sodipodi:expansion="1"
     sodipodi:revolution="2.8601375"
     sodipodi:radius="0.84433472"
     sodipodi:argument="-19.683548"
     sodipodi:t0="0"
     d="m -1.8392818,7.7511497 c 0.029836,-0.032886 0.05905,0.023993 0.054659,0.049589 -0.011899,0.069363 -0.099259,0.08467 -0.1538379,0.059729 -0.097628,-0.044613 -0.1150032,-0.1719474 -0.064799,-0.2580863 0.073677,-0.1264123 0.2456005,-0.1461781 0.3623348,-0.069869 0.1555885,0.1017085 0.1777079,0.3195935 0.074938,0.4665833 -0.1293247,0.1849717 -0.3937477,0.2094205 -0.5708318,0.080008 -0.2144725,-0.1567355 -0.241239,-0.4679928 -0.085078,-0.6750803 0.1840301,-0.2440454 0.5422943,-0.2731238 0.7793287,-0.090148 0.2736657,0.2112528 0.305053,0.6166336 0.095218,0.8835772 C -1.5857774,8.500772 -2.0383488,8.5344668 -2.3351751,8.2977413 -2.6681694,8.032171 -2.7041709,7.5323567 -2.4405326,7.205667 -2.3198308,7.0560984 -2.1470197,6.9529967 -1.9587564,6.9153106"
     transform="matrix(2.2537403,0,0,2.1807187,7.0476074,-6.4673153)" />
  <path
     sodipodi:type="spiral"
     style="fill:none;fill-rule:evenodd;stroke:#000000;stroke-width:0.1;stroke-linecap:butt;stroke-linejoin:miter;stroke-miterlimit:4;stroke-dasharray:none;stroke-opacity:1"
     id="path4187-0"
     sodipodi:cx="-1.8392818"
     sodipodi:cy="7.7511497"
     sodipodi:expansion="1"
     sodipodi:revolution="2.8601375"
     sodipodi:radius="0.84433472"
     sodipodi:argument="-19.683548"
     sodipodi:t0="0"
     d="m -1.8392818,7.7511497 c 0.029836,-0.032886 0.05905,0.023993 0.054659,0.049589 -0.011899,0.069363 -0.099259,0.08467 -0.1538379,0.059729 -0.097628,-0.044613 -0.1150032,-0.1719474 -0.064799,-0.2580863 0.073677,-0.1264123 0.2456005,-0.1461781 0.3623348,-0.069869 0.1555885,0.1017085 0.1777079,0.3195935 0.074938,0.4665833 -0.1293247,0.1849717 -0.3937477,0.2094205 -0.5708318,0.080008 -0.2144725,-0.1567355 -0.241239,-0.4679928 -0.085078,-0.6750803 0.1840301,-0.2440454 0.5422943,-0.2731238 0.7793287,-0.090148 0.2736657,0.2112528 0.305053,0.6166336 0.095218,0.8835772 C -1.5857774,8.500772 -2.0383488,8.5344668 -2.3351751,8.2977413 -2.6681694,8.032171 -2.7041709,7.5323567 -2.4405326,7.205667 -2.3198308,7.0560984 -2.1470197,6.9529967 -1.9587564,6.9153106"
     transform="matrix(-2.2888387,0,0,2.1796505,5.5850649,-6.3934184)" />
  <path
     style="fill:none;fill-rule:evenodd;stroke:#000000;stroke-width:0.2;stroke-linecap:butt;stroke-linejoin:miter;stroke-miterlimit:4;stroke-dasharray:none;stroke-opacity:1"
     d="M 2.583753,8.6488942 3.4377053,8.4737245 3.9194219,8.2328662 4.4011386,7.8168382 4.9047515,6.9628859 5.6054302,4.6418875 5.3619457,18.983877 l -0.6335129,0.328441 -0.046395,0.449585 0.6119675,0.363091 0.070566,0.61061 -0.5366762,1.537267 -1.1248224,1.33168 1.2618097,1.711274 0.00556,3.784132"
     id="path4210"
     inkscape:connector-curvature="0"
     sodipodi:nodetypes="ccccccccccccccc" />
  <path
     style="fill:none;fill-rule:evenodd;stroke:#000000;stroke-width:0.19226746;stroke-linecap:butt;stroke-linejoin:miter;stroke-miterlimit:4;stroke-dasharray:none;stroke-opacity:1"
     d="M 10.095626,8.7038271 8.6682114,8.4629526 8.2230804,8.2220644 7.7779474,7.8059844 7.3125824,6.9519245 6.7984363,4.6746144 6.8901074,18.97442 l 0.5854,0.328482 0.04288,0.449641 -0.565491,0.363137 -0.06521,0.610686 0.495917,1.53746 1.039397,1.331846 -1.16598,1.711488 -0.0052,3.784606"
     id="path4210-4"
     inkscape:connector-curvature="0"
     sodipodi:nodetypes="ccccccccccccccc" />
  <path
     sodipodi:type="spiral"
     style="fill:none;fill-rule:evenodd;stroke:#000000;stroke-width:0.2;stroke-linecap:butt;stroke-linejoin:miter;stroke-miterlimit:4;stroke-dasharray:none;stroke-opacity:1"
     id="path4227"
     sodipodi:cx="3.9851105"
     sodipodi:cy="43.923691"
     sodipodi:expansion="1"
     sodipodi:revolution="2.8601401"
     sodipodi:radius="1.271678"
     sodipodi:argument="-16.348316"
     sodipodi:t0="0"
     d="m 3.9851105,43.923691 c -0.053628,0.03996 -0.080321,-0.05258 -0.066413,-0.08913 0.03769,-0.09907 0.171243,-0.09637 0.2446802,-0.04369 0.1313619,0.09423 0.1201376,0.287466 0.020971,0.400227 -0.1455308,0.165481 -0.4053589,0.144867 -0.5557734,-0.0017 -0.2004788,-0.195416 -0.170022,-0.523857 0.024471,-0.71132 0.244749,-0.235902 0.6426468,-0.195401 0.8668664,0.04719 0.27156,0.293811 0.2209098,0.761601 -0.069912,1.022413 -0.3427237,0.307357 -0.8806586,0.2465 -1.1779595,-0.09263 -0.3432457,-0.391543 -0.2721456,-0.999785 0.1153539,-1.333506 0.4403015,-0.379196 1.1189585,-0.297829 1.4890526,0.138074 0.4151896,0.489018 0.3235397,1.238168 -0.1607956,1.644599 -0.2217492,0.186082 -0.5070505,0.288379 -0.7962294,0.28951"
     transform="matrix(-0.97625414,0.72780492,-0.75512413,-0.95621579,41.245511,83.161996)" />
  <path
     sodipodi:type="spiral"
     style="fill:none;fill-rule:evenodd;stroke:#000000;stroke-width:0.2;stroke-linecap:butt;stroke-linejoin:miter;stroke-miterlimit:4;stroke-dasharray:none;stroke-opacity:1"
     id="path4227-6"
     sodipodi:cx="3.9851105"
     sodipodi:cy="43.923691"
     sodipodi:expansion="1"
     sodipodi:revolution="2.8601401"
     sodipodi:radius="1.271678"
     sodipodi:argument="-16.348316"
     sodipodi:t0="0"
     d="m 3.9851105,43.923691 c -0.053628,0.03996 -0.080321,-0.05258 -0.066413,-0.08913 0.03769,-0.09907 0.171243,-0.09637 0.2446802,-0.04369 0.1313619,0.09423 0.1201376,0.287466 0.020971,0.400227 -0.1455308,0.165481 -0.4053589,0.144867 -0.5557734,-0.0017 -0.2004788,-0.195416 -0.170022,-0.523857 0.024471,-0.71132 0.244749,-0.235902 0.6426468,-0.195401 0.8668664,0.04719 0.27156,0.293811 0.2209098,0.761601 -0.069912,1.022413 -0.3427237,0.307357 -0.8806586,0.2465 -1.1779595,-0.09263 -0.3432457,-0.391543 -0.2721456,-0.999785 0.1153539,-1.333506 0.4403015,-0.379196 1.1189585,-0.297829 1.4890526,0.138074 0.4151896,0.489018 0.3235397,1.238168 -0.1607956,1.644599 -0.2217492,0.186082 -0.5070505,0.288379 -0.7962294,0.28951"
     transform="matrix(1.022429,0.7324779,0.79083998,-0.96235532,-30.67757,83.389856)" />
  <path
     style="fill:none;fill-rule:evenodd;stroke:#000000;stroke-width:0.19802529;stroke-linecap:butt;stroke-linejoin:miter;stroke-miterlimit:4;stroke-dasharray:none;stroke-opacity:1"
     d="m 3.0870029,43.020995 0.7976578,-0.784888 0.7114245,-1.068317 0.3018165,-0.981108 0.2586998,-1.046516 0.086233,-1.024713 0.1077915,-1.068317 0.4527248,0 -0.1509077,9.462243 -0.38805,-0.501455 -0.6683078,-0.06541 -0.2587,-0.392443"
     id="path4244"
     inkscape:connector-curvature="0"
     sodipodi:nodetypes="cccccccccccc" />
  <path
     style="fill:none;fill-rule:evenodd;stroke:#000000;stroke-width:0.20010467;stroke-linecap:butt;stroke-linejoin:miter;stroke-miterlimit:4;stroke-dasharray:none;stroke-opacity:1"
     d="M 9.2673309,42.933174 8.5594896,42.195464 7.8295282,41.132296 7.5198475,40.155914 7.2544071,39.114443 7.1659264,38.094668 7.0553263,37.031499 l -0.4645209,0 -0.020666,9.438263 0.4681564,-0.499039 0.7314155,-0.216872 0.2639864,-0.238706"
     id="path4244-9"
     inkscape:connector-curvature="0"
     sodipodi:nodetypes="cccccccccccc" />
  <ellipse
     style="opacity:1;fill:#000000;fill-opacity:1;fill-rule:nonzero;stroke:#000000;stroke-width:0.2;stroke-miterlimit:4;stroke-dasharray:none;stroke-opacity:1"
     id="path4148"
     cx="6.3951688"
     cy="33.077267"
     rx="0.29420874"
     ry="0.077423349" />
  <ellipse
     style="opacity:1;fill:#1a1a1a;fill-opacity:1;fill-rule:nonzero;stroke:#000000;stroke-width:0.127;stroke-miterlimit:4;stroke-dasharray:none;stroke-opacity:1"
     id="path4150"
     cx="6.1087027"
     cy="33.007591"
     rx="4.5158539"
     ry="4.4693999" />
</svg>
