<?xml version="1.0" encoding="UTF-8" standalone="no"?>
<!-- Created with Inkscape (http://www.inkscape.org/) -->

<svg
   xmlns:dc="http://purl.org/dc/elements/1.1/"
   xmlns:cc="http://creativecommons.org/ns#"
   xmlns:rdf="http://www.w3.org/1999/02/22-rdf-syntax-ns#"
   xmlns:svg="http://www.w3.org/2000/svg"
   xmlns="http://www.w3.org/2000/svg"
   version="1.1"
   width="11.5"
   height="44.799999"
   id="svg2">
  <defs
     id="defs4" />
  <metadata
     id="metadata7">
    <rdf:RDF>
      <cc:Work
         rdf:about="">
        <dc:format>image/svg+xml</dc:format>
        <dc:type
           rdf:resource="http://purl.org/dc/dcmitype/StillImage" />
        <dc:title></dc:title>
      </cc:Work>
    </rdf:RDF>
  </metadata>
  <g
     transform="translate(4.209735,-1017.3106)"
     id="layer1">
    <path
       d="m 1.5203062,1017.3546 -4.9287925,7.887 c -1.4844597,2.9589 -0.9896389,6.8975 2.95921758,7.887 l 0,14.7844 c -0.48511659,0.3104 -0.82469938,0.679 -1.11576918,1.1738 -0.3298814,0.5722 -0.4754151,1.1253 -0.4754151,1.7751 0,0.6598 0.1455333,1.2127 0.4754151,1.7753 0.2910698,0.5045 0.63065259,0.8636 1.11576918,1.1836 0,1.4746 -0.49482051,6.4026 -0.98963878,7.887 1.01874577,0.2718 1.9016602,0.3881 2.9592137,0.3881 1.0478551,0 1.9404724,-0.1157 2.9495157,-0.3881 -0.4851185,-1.4844 -0.9799372,-6.4124 -0.9799372,-7.887 0.4754162,-0.32 0.8247009,-0.6791 1.1060676,-1.1836 0.3298802,-0.5626 0.4754171,-1.1155 0.4754171,-1.7753 0,-0.6498 -0.1455339,-1.2029 -0.4754171,-1.7751 -0.2813667,-0.4948 -0.6306514,-0.8634 -1.1060676,-1.1738 l 0,-14.7844 c 3.939153,-0.9895 4.4339756,-4.9281 2.9592156,-7.887 l -4.9287941,-7.887 z m -0.69856799,32.3044 c 0.22315389,-0.126 0.43660609,-0.1842 0.69856799,-0.1842 0.2522616,0 0.4754167,0.06 0.6985708,0.1842 0.2134517,0.1261 0.3783913,0.291 0.5045217,0.5045 0.1261351,0.2232 0.1843452,0.4462 0.1843452,0.6984 0,0.2621 -0.058211,0.4754 -0.1843452,0.6988 -0.058202,0.1155 -0.1261353,0.2036 -0.2231527,0.2907 -0.087328,0.086 -0.174642,0.1553 -0.281369,0.2232 -0.2231541,0.126 -0.4463092,0.1843 -0.6985708,0.1843 -0.2619619,0 -0.4754141,-0.06 -0.69856799,-0.1843 -0.22315379,-0.1351 -0.37839127,-0.2911 -0.514223,-0.5139 -0.1261303,-0.2234 -0.18434536,-0.4367 -0.18434536,-0.6988 0,-0.2522 0.0582169,-0.4752 0.18434536,-0.6984 0.0679144,-0.1073 0.13583261,-0.1939 0.22315379,-0.2812 0.087317,-0.095 0.17464314,-0.165 0.29106921,-0.2233 z"
       id="path61"
       style="fill:#202020;stroke:none" />
  </g>
</svg>
