<?xml version="1.0" encoding="UTF-8" standalone="no"?>
<!-- Created with Inkscape (http://www.inkscape.org/) -->

<svg
   xmlns:dc="http://purl.org/dc/elements/1.1/"
   xmlns:cc="http://creativecommons.org/ns#"
   xmlns:rdf="http://www.w3.org/1999/02/22-rdf-syntax-ns#"
   xmlns:svg="http://www.w3.org/2000/svg"
   xmlns="http://www.w3.org/2000/svg"
   version="1.1"
   width="6.2800002"
   height="53.450001"
   id="svg2">
  <defs
     id="defs4" />
  <metadata
     id="metadata7">
    <rdf:RDF>
      <cc:Work
         rdf:about="">
        <dc:format>image/svg+xml</dc:format>
        <dc:type
           rdf:resource="http://purl.org/dc/dcmitype/StillImage" />
        <dc:title></dc:title>
      </cc:Work>
    </rdf:RDF>
  </metadata>
  <g
     transform="translate(1.6417909,-1007.3532)"
     id="layer1">
    <path
       d="m 1.5021865,1007.3516 -2.6135643,22.631 0.87404261,18.2863 c -0.42845165,0.2741 -0.72836841,0.5997 -0.98544131,1.0368 -0.2913453,0.5056 -0.4198834,0.994 -0.4198834,1.5681 0,0.5827 0.1285381,1.0711 0.4198834,1.5681 0.2570729,0.4456 0.55698966,0.7629 0.98544131,1.0456 0,1.3023 -0.43701979,5.6555 -0.87404261,6.9665 0.89975124,0.2401 1.67953489,0.3429 2.6135643,0.3429 0.9254585,0 1.7138098,-0.1033 2.6049939,-0.3429 -0.4284531,-1.311 -0.8654756,-5.6642 -0.8654756,-6.9665 0.4198827,-0.2827 0.72837,-0.6 0.9768735,-1.0456 0.2913486,-0.497 0.4198831,-0.9854 0.4198831,-1.5681 0,-0.5741 -0.1285345,-1.0625 -0.4198831,-1.5681 -0.2485035,-0.4371 -0.5569908,-0.7627 -0.9768735,-1.0368 l 0.8654756,-18.2863 -2.6049939,-22.631 z m -0.61697216,42.4597 c 0.19708836,-0.1114 0.38560896,-0.1628 0.61697216,-0.1628 0.2227945,0 0.4198836,0.05 0.6169716,0.1628 0.1885207,0.1114 0.3341925,0.2571 0.4455914,0.4456 0.1113978,0.1971 0.162812,0.3942 0.162812,0.6169 0,0.2313 -0.051409,0.42 -0.162812,0.6171 -0.051409,0.1032 -0.1113989,0.1799 -0.1970892,0.2568 -0.077114,0.077 -0.1542434,0.1374 -0.2485022,0.1972 -0.197088,0.1115 -0.3941771,0.1629 -0.6169716,0.1629 -0.2313632,0 -0.4198838,-0.05 -0.61697216,-0.1629 -0.19708945,-0.1199 -0.33419461,-0.2569 -0.45416251,-0.454 -0.11139732,-0.1971 -0.16280946,-0.3858 -0.16280946,-0.6171 0,-0.2227 0.051413,-0.4198 0.16280946,-0.6169 0.0599909,-0.095 0.1199679,-0.1715 0.19708857,-0.2485 0.0771246,-0.086 0.15424355,-0.1457 0.25707394,-0.1971 z"
       id="path63"
       style="fill:#000000;stroke:none" />
  </g>
</svg>
